<?xml version="1.0" encoding="UTF-8"?>
<svg width="309px" height="33px" viewBox="0 0 309 33" version="1.1" xmlns="http://www.w3.org/2000/svg" xmlns:xlink="http://www.w3.org/1999/xlink">
    <!-- Generator: Sketch 56.3 (81716) - https://sketch.com -->
    <title>Logo@1.5x</title>
    <desc>Created with Sketch.</desc>
    <g id="Symbols" stroke="none" stroke-width="1" fill="none" fill-rule="evenodd">
        <g id="Header" transform="translate(-26.000000, -18.000000)" fill="#FFFFFF">
            <g id="Logo">
                <g transform="translate(26.000000, 15.000000)">
                    <text id="The-Movie-Finder-Wid" font-family="Lato-Bold, Lato" font-size="24" font-weight="bold" line-spacing="36">
                        <tspan x="37" y="24">The Movie Finder Widget</tspan>
                    </text>
                    <path d="M16.6064219,25.9850587 L14.7916667,24.1666667 L13.9358333,24.1666667 L13.6325,23.8741667 C14.6941667,22.6391667 15.3333333,21.0358333 15.3333333,19.2916667 C15.3333333,15.4025 12.1808333,12.25 8.29166667,12.25 C4.4025,12.25 1.25,15.4025 1.25,19.2916667 C1.25,23.1808333 4.4025,26.3333333 8.29166667,26.3333333 C10.0358333,26.3333333 11.6391667,25.6941667 12.8741667,24.6325 L13.1666667,24.9358333 L13.1666667,25.7916667 L14.5391426,27.1613976 L-1.84741111e-13,35.4345703 L-1.84741111e-13,3 L23.9177579,16.6098632 C24.386539,16.8766125 24.7747357,17.2648092 25.041485,17.7335902 C25.8609071,19.1736296 25.3577973,21.005285 23.9177579,21.8247071 L16.6064219,25.9850587 Z M8.29166667,24.1666667 C5.59416667,24.1666667 3.41666667,21.9891667 3.41666667,19.2916667 C3.41666667,16.5941667 5.59416667,14.4166667 8.29166667,14.4166667 C10.9891667,14.4166667 13.1666667,16.5941667 13.1666667,19.2916667 C13.1666667,21.9891667 10.9891667,24.1666667 8.29166667,24.1666667 Z" id="Icon"></path>
                </g>
            </g>
        </g>
    </g>
</svg>